<svg width="28" height="26" viewBox="0 0 28 26" fill="none" xmlns="http://www.w3.org/2000/svg">
<path d="M0.702654 19.6973C0.783987 19.5667 0.910654 19.5573 1.08799 19.6707C5.13465 22.0173 9.53865 23.1973 14.296 23.1973C17.4707 23.1973 20.6027 22.6013 23.6973 21.4213L24.0467 21.2653C24.2 21.1973 24.3067 21.1533 24.372 21.12C24.624 21.0213 24.8067 21.0707 24.956 21.2653C25.092 21.456 25.0573 21.6373 24.8227 21.7987C24.5387 22.0093 24.156 22.2547 23.7027 22.5253C22.32 23.3507 20.7653 23.9893 19.0467 24.4467C17.344 24.8947 15.6613 25.124 14.02 25.124C11.5013 25.124 9.11332 24.684 6.86132 23.804C4.61332 22.9213 2.61065 21.6787 0.819987 20.0747C0.707987 19.9933 0.65332 19.9107 0.65332 19.8293C0.65332 19.7773 0.674653 19.7307 0.707987 19.684L0.702654 19.6973ZM8.00799 12.7787C8.00799 11.6587 8.28399 10.7053 8.83332 9.90933C9.38532 9.12 10.136 8.52133 11.104 8.11467C11.992 7.74 13.0573 7.47467 14.344 7.312C14.7787 7.26267 15.492 7.19733 16.4773 7.11867V6.70533C16.4773 5.67467 16.3653 4.97333 16.1467 4.62C15.8107 4.14133 15.28 3.89867 14.5427 3.89867H14.3427C13.8093 3.95067 13.348 4.11467 12.9573 4.40933C12.5667 4.70933 12.3173 5.112 12.2053 5.63067C12.14 5.964 11.976 6.14667 11.724 6.19867L8.91732 5.84667C8.63865 5.77867 8.50265 5.64667 8.50265 5.412C8.50265 5.36267 8.51065 5.31333 8.52665 5.248C8.80532 3.81067 9.47999 2.74 10.5533 2.04267C11.6387 1.35733 12.8893 0.957333 14.324 0.875999H14.9253C16.764 0.875999 18.2173 1.35733 19.2507 2.31067C19.404 2.47467 19.5533 2.644 19.704 2.84133C19.8373 3.02667 19.9547 3.19333 20.016 3.344C20.1 3.492 20.1853 3.71067 20.2347 3.97733C20.3027 4.26133 20.352 4.44667 20.3853 4.54533C20.416 4.66 20.4533 4.87867 20.4707 5.23067C20.4787 5.58 20.492 5.77733 20.492 5.84533V11.72C20.492 12.1387 20.5573 12.5227 20.6747 12.8733C20.792 13.22 20.9067 13.4747 21.024 13.624L21.5947 14.372C21.6907 14.5253 21.7427 14.6587 21.7427 14.776C21.7427 14.912 21.6773 15.0267 21.5453 15.1227C20.2093 16.292 19.4747 16.9253 19.36 17.0267C19.1773 17.1773 18.9427 17.1933 18.66 17.0787C18.444 16.8907 18.2413 16.7093 18.0747 16.5267L17.7307 16.1387C17.6627 16.0547 17.5427 15.9067 17.376 15.6693L17.0427 15.1853C16.1413 16.172 15.2587 16.792 14.3733 17.0427C13.8213 17.2093 13.1547 17.2933 12.3347 17.2933C11.1 17.2933 10.0667 16.9133 9.26399 16.1427C8.46665 15.3747 8.06399 14.2907 8.06399 12.872L8.00665 12.788L8.00799 12.7787ZM12.1827 12.2893C12.1827 12.9227 12.3387 13.4253 12.656 13.808C12.9707 14.188 13.4067 14.3787 13.9427 14.3787C13.9893 14.3787 14.06 14.368 14.156 14.3547C14.26 14.3387 14.304 14.328 14.344 14.328C15.0267 14.1507 15.5467 13.7133 15.9293 13.0187C16.112 12.7093 16.244 12.376 16.328 12.008C16.4293 11.6507 16.4613 11.3493 16.476 11.12C16.4973 10.8987 16.4973 10.516 16.4973 10V9.39867C15.56 9.39867 14.844 9.464 14.3587 9.596C12.9413 10 12.22 10.8987 12.22 12.3013L12.1813 12.28V12.2893H12.1827ZM22.3773 20.1093C22.4107 20.0413 22.4613 19.9867 22.5227 19.9187C22.924 19.6507 23.3173 19.4627 23.692 19.364C24.304 19.2133 24.9027 19.116 25.484 19.096C25.64 19.0827 25.796 19.096 25.9453 19.1293C26.664 19.1973 27.1093 19.3173 27.248 19.4933C27.3187 19.5973 27.3467 19.748 27.3467 19.9307V20.0973C27.3467 20.6653 27.1907 21.332 26.8827 22.1C26.5747 22.868 26.1453 23.488 25.5987 23.9693C25.5173 24.0347 25.4453 24.068 25.38 24.068C25.3467 24.068 25.312 24.068 25.2813 24.0547C25.18 24.0053 25.1613 23.9213 25.208 23.7867C25.8093 22.3853 26.104 21.404 26.104 20.852C26.104 20.6827 26.0707 20.5493 26.0053 20.4667C25.8467 20.284 25.396 20.1773 24.6453 20.1773C24.3747 20.1773 24.0547 20.1987 23.676 20.2293C23.272 20.284 22.9 20.3333 22.564 20.3827C22.4653 20.3827 22.4 20.364 22.364 20.3333C22.3307 20.3 22.3227 20.2813 22.34 20.248C22.34 20.2293 22.348 20.2147 22.364 20.1773V20.112L22.3773 20.1093Z" fill="white"/>
</svg>
