<?xml version="1.0" encoding="utf-8"?>
<!-- Generator: Adobe Illustrator 16.0.0, SVG Export Plug-In . SVG Version: 6.00 Build 0)  -->
<!DOCTYPE svg PUBLIC "-//W3C//DTD SVG 1.1//EN" "http://www.w3.org/Graphics/SVG/1.1/DTD/svg11.dtd">
<svg version="1.1" id="Layer_1" xmlns="http://www.w3.org/2000/svg" xmlns:xlink="http://www.w3.org/1999/xlink" x="0px" y="0px"
	 width="128px" height="128px" viewBox="0 0 128 128" enable-background="new 0 0 128 128" xml:space="preserve">
<g>
	<g>
		<g>
			<path fill="#282D33" d="M88.477,116.692L75.792,98.707l2.069-1.464c6.58-4.646,11.424-11.438,13.638-19.124l4.875,1.404
				c-2.3,7.98-7.074,15.116-13.562,20.338l6.854,9.718c0.183-0.139,0.362-0.28,0.54-0.422c8.652-6.839,14.536-15.469,17.486-25.644
				l4.872,1.412c-3.251,11.21-9.716,20.705-19.215,28.215c-0.903,0.711-1.843,1.414-2.8,2.088L88.477,116.692z"/>
		</g>
		<g>
			<path fill="none" stroke="#282D33" stroke-width="4" stroke-miterlimit="10" d="M95.415,68.825"/>
		</g>
		<g>
			<path fill="#282D33" d="M11.965,103.461l-1.462-2.071C3.462,91.42-0.168,79.694,0.006,67.478c0.003-0.24,0.014-0.48,0.026-0.721
				l0.034-0.889c0.01-0.33,0.021-0.657,0.042-0.983c0.016-0.269,0.037-0.551,0.058-0.836l0.014-0.185
				c0.051-0.681,0.11-1.366,0.185-2.046l2.538,0.138l-2.522-0.273l0.034-0.273C2.717,41.923,15.25,24.6,33.128,16.237l0.286-0.135
				c0.385-0.173,0.774-0.34,1.161-0.506l0.34-0.146c4.494-1.916,9.208-3.249,14.02-3.965l0.126-0.022
				c0.665-0.095,1.338-0.17,2.009-0.245l0.325-0.039c0.232-0.028,0.466-0.056,0.699-0.078c0.322-0.03,0.643-0.051,0.964-0.072
				l0.574-0.04c0.503-0.036,1.006-0.071,1.512-0.089c0.09-0.005,0.236-0.009,0.382-0.011l0.23-0.007
				c0.835-0.02,1.597-0.032,2.363-0.022l0.096-0.005c1.401,0,2.537,1.136,2.537,2.537c0,1.38-1.103,2.503-2.476,2.536
				c-0.059,0.002-0.152,0.006-0.191,0.006c-0.74-0.011-1.438,0.002-2.139,0.019c-0.063,0.004-0.195,0.007-0.328,0.009l-0.244,0.007
				c-0.5,0.018-0.941,0.05-1.383,0.082l-0.602,0.041c-0.274,0.018-0.548,0.036-0.823,0.062c-0.185,0.017-0.371,0.041-0.556,0.063
				l-0.339,0.04c-0.635,0.071-1.236,0.138-1.829,0.221l-0.134,0.023c-4.411,0.657-8.707,1.872-12.796,3.615l-0.34,0.146
				c-0.348,0.148-0.697,0.298-1.042,0.454l-0.239,0.11C19.028,28.387,7.554,44.209,5.443,62.073l-2.541-0.117l2.521,0.272
				l-0.023,0.2c-0.063,0.57-0.116,1.193-0.162,1.812l-0.068,0.961c-0.019,0.282-0.027,0.555-0.035,0.827L5.099,67
				c-0.009,0.181-0.018,0.364-0.02,0.547c-0.147,10.292,2.665,20.197,8.155,28.813l9.71-6.847
				c-4.044-6.544-6.113-14.029-6.005-21.797c0.317-22.334,18.743-40.211,41.079-39.93c1.401,0.02,2.521,1.172,2.5,2.572
				c-0.021,1.401-1.185,2.479-2.572,2.5c-19.553-0.283-35.657,15.393-35.934,34.928c-0.105,7.54,2.134,14.772,6.476,20.918
				l1.465,2.073L11.965,103.461z"/>
		</g>
		<g>
			<path fill="#282D33" d="M57.473,125.736c-0.001,0-0.001,0-0.002,0l-0.834-0.005c-0.713-0.011-1.42-0.05-2.128-0.09l-1.11-0.057
				c-0.763-0.045-1.552-0.124-2.337-0.206l-0.317-0.029c-15.38-1.67-28.605-9.028-38.245-21.287
				c-0.669-0.853-1.279-1.664-1.857-2.479l-1.995-1.989l18.379-12.959l1.462,2.07c6.527,9.242,17.165,14.857,28.456,15.016
				l0.516,0.002c7.343,0,14.399-2.238,20.403-6.479l2.073-1.464l10.214,14.483h1.327l0.554,1.785
				c0.416,1.341-0.182,2.168-1.071,2.886l0.005,0.008c-0.021,0.015-0.057,0.037-0.103,0.069c-0.281,0.221-0.588,0.431-0.899,0.644
				c-0.142,0.1-0.286,0.196-0.43,0.293l-1.056,0.745l-0.023-0.034C79.207,122.603,68.534,125.736,57.473,125.736z M53.873,120.537
				l0.222,0.007c0.152,0.005,0.305,0.01,0.457,0.021l0.242,0.012c0.634,0.037,1.268,0.072,1.912,0.082l0.765,0.005
				c10.011,0,19.67-2.813,28.056-8.154l-6.856-9.722c-6.381,3.94-13.663,6.009-21.21,6.009l-0.586-0.002
				c-12.062-0.171-23.47-5.784-31.001-15.137l-9.714,6.849c0.107,0.139,0.217,0.277,0.328,0.418
				c8.778,11.164,20.813,17.864,34.805,19.383l0.338,0.032c0.665,0.069,1.387,0.144,2.115,0.188L53.873,120.537z"/>
		</g>
	</g>
	<g>
		<g>
			<g>
				<g>
					<path fill="#282D33" d="M119.872,90.162L56.01,69.41V2.264h2.537c7.148,0,13.372,0.984,20.176,3.193
						c16.593,5.389,30.092,16.917,38.012,32.462c7.919,15.543,9.312,33.24,3.921,49.831L119.872,90.162z M61.083,65.724
						l55.481,18.03c4.086-14.59,2.569-29.953-4.351-43.533c-7.305-14.336-19.755-24.97-35.058-29.939
						c-5.541-1.798-10.478-2.698-16.073-2.901V65.724z"/>
				</g>
			</g>
		</g>
	</g>
	<g>
		<g>
			<polygon fill="#282D33" points="94.686,43.458 91.1,39.872 109.776,21.192 128,21.192 128,26.265 111.877,26.265 			"/>
		</g>
		<g>
			<rect x="117.01" y="10.202" fill="#282D33" width="10.99" height="5.073"/>
		</g>
	</g>
</g>
</svg>
